<?xml version="1.0" ?><!DOCTYPE svg  PUBLIC '-//W3C//DTD SVG 1.1//EN'  'http://www.w3.org/Graphics/SVG/1.1/DTD/svg11.dtd'><svg height="512px" style="enable-background:new 0 0 512 512;" version="1.1" viewBox="0 0 512 512" width="512px" xml:space="preserve" xmlns="http://www.w3.org/2000/svg" xmlns:xlink="http://www.w3.org/1999/xlink"><g id="_x37_13_x2C__Arrow_x2C__choice_x2C__choose_x2C__decision_x2C__direction"><g><path d="M241.607,196.279v25.349h18.823h0.091h18.664h0.068h18.823v-25.554    l-27.343,24.455c-1.075,1.03-2.816,1.053-3.892,0L241.607,196.279z M263.338,227.262v15.982h13.031v-15.982H263.338z     M286.787,322.682l-36.157-0.045c-1.535-0.183-2.634-1.602-2.428-3.138l9.503-73.529v-18.708h-18.914    c-1.558,0-2.816-1.26-2.816-2.815v-28.327l-57.18,22.465v121.249h25.9v-97.527c0-1.624,1.305-2.931,2.93-2.931    c1.627,0,2.931,1.307,2.931,2.931v97.413H329.15v-97.413c0-1.624,1.306-2.931,2.932-2.931c1.603,0,2.931,1.307,2.931,2.931v97.527    h25.898V218.584l-57.201-22.465v28.327c0,1.556-1.26,2.815-2.816,2.815h-18.892v18.754l7.602,73.85    C289.604,321.422,288.345,322.682,286.787,322.682z M254.156,317.049h29.516l-7.029-68.17h-13.671L254.156,317.049z     M275.405,112.033c-7.809,4.97-18.066,7.993-29.264,7.993c-3.618,0-7.168-0.321-10.556-0.916    c-2.427-0.436-4.763-1.009-7.007-1.718c-0.962,3.596-1.49,7.373-1.49,11.266c0,12.046,4.878,22.945,12.778,30.822    c7.877,7.899,18.778,12.777,30.822,12.777c12.045,0,22.945-4.878,30.822-12.777l0.162-0.115    c7.809-7.877,12.616-18.731,12.616-30.707c0-2.794-0.275-5.542-0.779-8.199c-0.777,0.094-1.557,0.162-2.335,0.23    c-1.693,0.16-3.435,0.229-5.198,0.229c-6.206,0-12.136-0.939-17.494-2.609C283.627,116.797,279.208,114.645,275.405,112.033z     M290.542,89.844c-0.709,7.008-4.396,13.373-10.167,18.457c2.933,1.787,6.229,3.297,9.848,4.42    c4.808,1.488,10.145,2.336,15.754,2.336c1.603,0,3.184-0.068,4.717-0.207l1.328-0.114c-2.176-6.435-5.816-12.204-10.511-16.899    C298.305,94.63,294.618,91.928,290.542,89.844z M230.456,111.851c1.969,0.618,4.031,1.122,6.136,1.488    c3.046,0.55,6.252,0.825,9.549,0.825c10.808,0,20.563-3.07,27.594-8.063l0.068-0.045l0.045-0.023    c6.756-4.83,10.946-11.426,10.946-18.615v-0.023c-4.42-1.512-9.159-2.336-14.106-2.336c-12.044,0-22.944,4.9-30.822,12.777    C235.884,101.82,232.678,106.583,230.456,111.851z M329.266,345.582H210.441v104.189h56.583v-60.91    c0-1.557,1.261-2.816,2.816-2.816c1.559,0,2.816,1.26,2.816,2.816v60.91h56.608V345.582z M239.065,485.999    c-1.557,0-2.816-1.261-2.816-2.816c0-1.557,1.26-2.816,2.816-2.816h138.564c1.533,0,2.816,1.26,2.816,2.816    c0,1.556-1.283,2.816-2.816,2.816H239.065z M183.283,471.596c-1.557,0-2.816-1.26-2.816-2.816c0-1.535,1.26-2.816,2.816-2.816    h118.366c1.557,0,2.816,1.281,2.816,2.816c0,1.557-1.26,2.816-2.816,2.816H183.283z M201.992,68.342h39.914l24.869-14.014    l-24.869-14.016h-39.914V26.002h-5.862v80.262h-39.684l-24.891,14.014l24.891,14.016h39.684v43.393h5.862V68.342z" style="fill-rule:evenodd;clip-rule:evenodd;"/></g></g><g id="Layer_1"/></svg>