<?xml version="1.0" ?><!DOCTYPE svg  PUBLIC '-//W3C//DTD SVG 1.1//EN'  'http://www.w3.org/Graphics/SVG/1.1/DTD/svg11.dtd'><svg height="512px" style="enable-background:new 0 0 512 512;" version="1.1" viewBox="0 0 512 512" width="512px" xml:space="preserve" xmlns="http://www.w3.org/2000/svg" xmlns:xlink="http://www.w3.org/1999/xlink"><g id="_x32_80_x2C__solution_x2C__hand_x2C__idea_x2C__gear_x2C__services"><g><path d="M257.839,91.244c11.16,0,21.257,4.53,28.585,11.828    c7.3,7.329,11.83,17.455,11.83,28.586c0,11.19-4.53,21.285-11.83,28.584c-7.328,7.328-17.456,11.859-28.585,11.859    c-11.16,0-21.257-4.531-28.585-11.859c-7.328-7.328-11.858-17.424-11.858-28.584c0-11.131,4.531-21.227,11.858-28.555    C236.554,95.774,246.679,91.244,257.839,91.244 M281.131,108.364c-5.959-5.96-14.199-9.64-23.292-9.64s-17.333,3.68-23.292,9.64    c-5.991,5.96-9.672,14.201-9.672,23.294c0,9.122,3.682,17.362,9.641,23.323c5.963,5.96,14.203,9.64,23.324,9.64    c9.093,0,17.333-3.68,23.292-9.64c5.963-5.961,9.641-14.201,9.641-23.323C290.771,122.565,287.094,114.324,281.131,108.364z     M149.28,386.668c-1.127-0.335-2.341-0.426-3.559-0.305c-1.246,0.152-2.401,0.518-3.404,1.095    c-1.095,0.578-2.007,1.368-2.738,2.312c-0.761,0.942-1.337,2.037-1.674,3.162c-0.302,1.125-0.425,2.342-0.273,3.589    c0.123,1.216,0.519,2.372,1.066,3.375c0.607,1.095,1.397,2.007,2.31,2.768c0.944,0.729,2.039,1.307,3.193,1.642    c1.123,0.305,2.341,0.426,3.559,0.273c1.246-0.121,2.401-0.517,3.404-1.064c1.063-0.607,2.008-1.398,2.738-2.342    c0.761-0.911,1.305-1.976,1.642-3.131c0.333-1.096,0.425-2.311,0.302-3.559c-0.151-1.277-0.516-2.432-1.063-3.436    c-0.607-1.064-1.397-2.007-2.341-2.736C151.529,387.549,150.434,387.002,149.28,386.668z M187.14,388.553    c41.995-16.056,63.22-9.214,85.75-1.977c14.505,4.684,29.589,9.518,51.604,7.876c17.306-1.277,56.956-19.918,89.523-40.656    c26.942-17.151,48.807-35.306,48.108-45.188l-0.123-0.973c-0.666-4.805-3.709-7.664-7.661-9.215    c-4.563-1.764-10.339-2.037-15.509-1.672c-1.368,0.122-2.678,0.243-3.863,0.426c-12.101,1.673-28.188,6.812-43.605,13.441    c-14.838,6.354-29.01,14.049-38.254,21.285c-2.979,6.568-9.914,10.005-18.916,11.435c-21.316,3.345-54.826-5.718-67.72-9.184    l-2.951-0.79c-1.977-0.518-3.162-2.586-2.643-4.563c0.516-1.977,2.583-3.162,4.559-2.645l2.951,0.79    c12.498,3.376,44.975,12.134,64.681,9.031c9.152-1.46,15.295-5.747,13.926-15.144l-0.151-0.852    c-2.888-14.597-26.851-24.479-53.794-30.227c-27.641-5.898-58.141-7.236-73.225-4.926l-2.099,0.395    c-10.732,2.099-24.63,7.907-38.222,14.535l-0.273,0.152c-12.775,6.234-25.09,13.107-34.457,18.459    c4.229,4.044,8.455,9.092,12.561,14.748c7.574,10.491,14.838,23.142,20.801,35.184    C181.634,375.355,184.676,382.289,187.14,388.553z M144.868,378.943c2.222-0.243,4.412-0.03,6.447,0.548    c2.099,0.608,4.075,1.642,5.78,2.979c1.67,1.338,3.103,3.041,4.194,4.957c1.004,1.855,1.734,3.953,1.979,6.173v0.122    c0.242,2.189,0.028,4.379-0.579,6.385c-0.607,2.1-1.611,4.045-2.948,5.718c-1.34,1.703-3.042,3.132-4.958,4.196    c-1.885,1.034-3.983,1.733-6.173,1.977c-2.218,0.243-4.408,0.061-6.447-0.517c-2.126-0.608-4.074-1.643-5.776-3.011    c-1.702-1.338-3.13-3.041-4.197-4.957c-1.032-1.885-1.734-3.952-1.976-6.173c-0.242-2.22-0.032-4.409,0.547-6.478    c0.639-2.098,1.643-4.074,2.98-5.747c1.337-1.702,3.042-3.132,4.958-4.195C140.551,379.917,142.65,379.218,144.868,378.943z     M121.821,316.544l-4.531,2.19c-9.156,4.317-24.177,11.463-26.244,15.812c-1.674,3.559-0.091,9.245,1.702,15.631l1.551,5.656    c3.678,14.778,3.741,31.959,3.801,48.716c0.06,17.454,0.151,34.423,4.408,46.95l0.639,1.886c0.944-0.061,2.919-1.216,5.534-2.736    c4.927-2.858,14.779-7.451,26.03-12.62c21.987-10.188,49.417-22.867,51.544-27.58c1.154-2.556-5.261-19.615-14.81-38.833    c-5.805-11.707-12.799-23.992-20.159-34.119c-7.117-9.822-14.445-17.546-21.043-20.526    C127.173,315.571,124.281,315.328,121.821,316.544z M419.95,68.072c7.692,0,14.687,3.133,19.733,8.18    c5.051,5.049,8.181,12.042,8.181,19.767c0,7.692-3.13,14.687-8.181,19.735c-5.078,5.048-12.041,8.18-19.733,8.18    c-7.725,0-14.688-3.132-19.766-8.18c-5.047-5.078-8.181-12.043-8.181-19.735c0-7.725,3.134-14.688,8.181-19.767    C405.231,71.205,412.226,68.072,419.95,68.072z M353.869,96.019v2.706l18.461,2.768l3.617,13.593l-14.596,11.616l2.706,4.683    l17.394-6.812l9.945,9.913l-6.844,17.394l4.686,2.707l11.616-14.596l13.593,3.648l2.797,18.428h5.411l2.77-18.428l13.592-3.648    l11.617,14.596l4.682-2.707l-6.813-17.394l9.915-9.913l17.393,6.812l2.706-4.683l-14.597-11.616l3.65-13.593l18.429-2.768v-5.412    l-18.429-2.799l-3.65-13.563l14.597-11.646l-2.706-4.684l-17.393,6.844l-9.915-9.945l6.813-17.394l-4.682-2.706l-11.617,14.597    l-13.592-3.649l-2.77-18.428h-5.411l-2.797,18.428l-13.593,3.649L389.238,37.42l-4.686,2.706l6.844,17.394l-9.945,9.945    l-17.394-6.844l-2.706,4.684l14.596,11.617l-3.617,13.592l-18.461,2.799V96.019z M436.037,79.901    c-4.138-4.105-9.823-6.659-16.087-6.659c-6.296,0-12.014,2.554-16.116,6.659c-4.105,4.104-6.66,9.821-6.66,16.117    c0,6.264,2.555,11.98,6.66,16.086c4.103,4.104,9.82,6.66,16.116,6.66c6.264,0,11.981-2.556,16.087-6.66    c4.103-4.105,6.658-9.822,6.658-16.086C442.695,89.723,440.14,84.037,436.037,79.901z M29.894,465.001    c-2.145,0-3.892-1.732-3.892-3.892c0-2.129,1.748-3.893,3.892-3.893h360.71c2.162,0,3.896,1.764,3.896,3.893    c0,2.159-1.733,3.892-3.896,3.892H29.894z M154.235,482.061c-2.067,0-3.741-1.672-3.741-3.74c0-2.067,1.674-3.74,3.741-3.74    h255.923c2.067,0,3.741,1.673,3.741,3.74c0,2.068-1.674,3.74-3.741,3.74H154.235z M327.415,269.745    c1.916,0.699,2.92,2.858,2.222,4.773c-0.73,1.947-2.86,2.95-4.805,2.22c-0.215-0.061-73.865-27.307-98.042-21.285    c-24.812,6.203-79.701,37.007-79.852,37.098c-1.797,1.004-4.075,0.365-5.079-1.429c-0.976-1.794-0.337-4.074,1.46-5.078    c0.151-0.091,55.889-31.382,81.677-37.829C251.424,241.616,327.201,269.685,327.415,269.745z M162.202,131.688v3.924l26.7,3.982    l5.261,19.675l-21.134,16.847l3.924,6.781l25.177-9.883l14.385,14.383l-9.915,25.148l6.812,3.924l16.814-21.104l19.678,5.229    l4.012,26.729h7.847l4.015-26.729l19.674-5.229l16.814,21.104l6.784-3.924l-9.883-25.148l14.382-14.383l25.178,9.883l3.923-6.781    l-21.134-16.847l5.261-19.675l26.7-4.014v-7.814l-26.7-4.014l-5.261-19.676l21.103-16.846l-3.892-6.781l-25.178,9.883    l-14.382-14.383l9.883-25.15l-6.784-3.922L285.451,67.98l-19.674-5.26l-4.015-26.699h-7.847l-4.012,26.699l-19.678,5.26    l-16.814-21.104l-6.812,3.922l9.915,25.15l-14.385,14.383l-25.177-9.883l-3.924,6.781l21.134,16.846l-5.261,19.676l-26.7,3.982    V131.688z" style="fill-rule:evenodd;clip-rule:evenodd;"/><path d="M167.462,259.74c-2.067,0-3.738-1.672-3.738-3.74s1.67-3.74,3.738-3.74h177.072c2.071,0,3.741,1.672,3.741,3.74    s-1.67,3.74-3.741,3.74H167.462z"/><path d="M244.917,259.74c-2.039,0-3.713-1.672-3.713-3.74s1.674-3.74,3.713-3.74h22.166c2.039,0,3.741,1.672,3.741,3.74    s-1.702,3.74-3.741,3.74H244.917z"/><path d="M214.051,259.74c-2.067,0-3.741-1.672-3.741-3.74s1.674-3.74,3.741-3.74h83.93c2.035,0,3.71,1.672,3.71,3.74    s-1.675,3.74-3.71,3.74H214.051z"/></g></g><g id="Layer_1"/></svg>